<svg xmlns="http://www.w3.org/2000/svg" xmlns:xlink="http://www.w3.org/1999/xlink" width="500" height="500" viewBox="0 0 500 500" fill="none"><g  clip-path="url(#clip-path-0_1)"><rect  x="35.75611877441406" y="176.62725830078125" width="322.1421944277765" height="322.1421457994196" transform="rotate(-26.586889706511425 35.75611877441406 176.62725830078125)" rx="20"    fill="#A79779" ></rect><path   fill="rgba(255, 255, 255, 1)"  d="M51.851 164.099L304.159 37.8251C316.012 31.8929 330.43 36.6928 336.362 48.546L462.636 300.854C468.568 312.707 463.768 327.125 451.915 333.057L199.608 459.331C187.754 465.263 173.336 460.463 167.404 448.61L41.1302 196.303C35.1979 184.449 39.9978 170.031 51.851 164.099ZM55.4315 171.253C47.5293 175.208 44.3294 184.82 48.2842 192.722L174.558 445.03C178.513 452.932 188.125 456.132 196.027 452.177L448.335 325.903C456.237 321.948 459.437 312.336 455.482 304.434L329.208 52.1264C325.253 44.2243 315.641 41.0244 307.739 44.9792L55.4315 171.253Z"></path><rect  x="122.2065200805664" y="205.40679931640625" width="193.28533627255987" height="193.2854147556439" transform="rotate(-26.586886651085262 122.2065200805664 205.40679931640625)" rx="20"    fill="#827B7C" ></rect><path   fill="rgba(255, 255, 255, 1)"  d="M138.301 192.879L275.378 124.275C287.231 118.343 301.649 123.143 307.581 134.996L376.185 272.072C382.117 283.926 377.317 298.344 365.464 304.276L228.388 372.879C216.534 378.812 202.116 374.012 196.184 362.159L127.581 225.082C121.648 213.229 126.448 198.811 138.301 192.879ZM141.882 200.033C133.98 203.988 130.78 213.6 134.735 221.502L203.338 358.578C207.293 366.48 216.905 369.68 224.807 365.725L361.884 297.122C369.786 293.167 372.986 283.555 369.031 275.653L300.427 138.576C296.472 130.674 286.86 127.474 278.958 131.429L141.882 200.033Z"></path><rect  x="92.19158172607422" y="76.3353271484375" width="128.85689077940387" height="450.9993907835814" transform="rotate(-26.586889706511425 92.19158172607422 76.3353271484375)" rx="20"    fill="#E5D4A4" ></rect><path   fill="rgba(255, 255, 255, 1)"  d="M108.286 63.8072L187.747 24.0389C199.601 18.1067 214.019 22.9065 219.951 34.7598L403.895 402.299C409.828 414.152 405.028 428.57 393.175 434.502L313.714 474.271C301.861 480.203 287.443 475.403 281.51 463.55L97.5656 96.0107C91.6334 84.1575 96.4333 69.7395 108.286 63.8072ZM111.867 70.9613C103.965 74.9161 100.765 84.5281 104.72 92.4302L288.664 459.969C292.619 467.871 302.231 471.071 310.133 467.116L389.594 427.348C397.496 423.393 400.696 413.781 396.741 405.879L212.797 38.3402C208.842 30.4381 199.23 27.2381 191.328 31.193L111.867 70.9613Z"></path><rect  x="421.82122802734375" y="90.039306640625" width="128.85687947514424" height="450.9987779279666" transform="rotate(63.41311182047408 421.82122802734375 90.039306640625)" rx="20"    fill="#E5D4A4" ></rect><path   fill="rgba(255, 255, 255, 1)"  d="M434.349 106.134L474.118 185.595C480.05 197.448 475.25 211.866 463.397 217.799L95.8584 401.743C84.0052 407.675 69.5872 402.875 63.6549 391.022L23.8866 311.561C17.9544 299.708 22.7543 285.29 34.6075 279.358L402.146 95.4134C413.999 89.4811 428.417 94.281 434.349 106.134ZM427.195 109.715C423.24 101.813 413.628 98.6126 405.726 102.567L38.1879 286.512C30.2858 290.467 27.0858 300.079 31.0407 307.981L70.809 387.442C74.7638 395.344 84.3758 398.544 92.278 394.589L459.816 210.645C467.719 206.69 470.918 197.078 466.964 189.176L427.195 109.715Z"></path></g><defs><clipPath id="clip-path-0_1"><path d="M0 450L0 50C0 22.3858 22.3858 0 50 0L450 0C477.614 0 500 22.3858 500 50L500 450C500 477.614 477.614 500 450 500L50 500C22.3858 500 0 477.614 0 450Z" fill="white"/></clipPath></defs></svg>